<svg width="65" height="140" viewBox="0 0 65 140" fill="none" xmlns="http://www.w3.org/2000/svg">
<path d="M27.7357 117.975L27.7058 123.181C27.7058 123.181 28.3046 126.512 28.8137 130.07C29.2928 133.627 29.6821 137.411 29.173 138.284C28.1849 140.03 26.2385 138.284 25.9091 136.538C25.5797 134.791 25.1006 123.893 25.1006 123.893L24.7712 116.875L27.7357 117.975Z" fill="#0B4870"/>
<path d="M32.6466 117.263L31.898 121.953C31.898 121.953 30.4307 134.759 31.2392 136.699C32.0477 138.64 34.6528 137.767 34.5031 135.115C34.3534 132.495 34.9822 123.181 34.9822 123.181L36.4495 117.554L32.6466 117.263Z" fill="#0B4870"/>
<path d="M30.6404 60.184L30.2811 65.9405L44.0554 73.1199C46.5407 74.5751 47.7385 77.7121 46.93 80.6227L37.4078 118.88L32.6766 117.263L36.8389 82.0779C37.1383 79.9112 35.7609 77.9061 33.7546 77.5504L28.8438 76.7096L23.6335 70.9531L29.6822 76.8066C31.1495 78.2295 31.8681 80.3316 31.5986 82.4337L27.7359 117.975L23.4539 119.139L21.5375 84.18C21.3877 81.9486 20.0103 80.0729 18.0639 79.3938L9.5898 76.4832C8.24231 75.61 7.40388 74.0254 7.34399 72.3114L7.70333 59.99L30.6404 60.184Z" fill="#0B4870"/>
<path d="M6.80493 73.0874L9.08067 25.2895C9.08067 25.2895 18.4831 24.675 21.2978 24.675C22.825 24.675 25.4301 25.4512 27.4962 26.1627C29.4426 26.8418 31.0296 26.7771 31.9878 28.7175L47.409 60.669L37.9168 61.6392L34.7427 57.7585L36.3597 55.139L30.5805 40.4568L31.7184 67.1369L6.80493 73.0874Z" fill="#FFBE55"/>
<path opacity="0.08" d="M30.79 34.6356L41.0309 54.5892L37.8568 58.6316C37.8568 58.6316 36.5692 58.9227 35.3415 58.4699L34.7726 57.7584L36.3895 55.1389L30.6104 40.4567L30.79 34.6356Z" fill="#0F0F0F"/>
<path d="M21.6871 39.1309C18.5729 39.1309 12.8835 30.3668 12.8835 27.0035C12.8835 26.3244 13.0033 25.6776 13.183 25.0631C16.0876 24.9014 19.7108 24.7074 21.2978 24.7074C21.9865 24.7074 22.8849 24.8691 23.873 25.0955C24.0527 25.7099 24.1724 26.3244 24.1724 27.0035C24.1425 30.3668 24.8013 39.1309 21.6871 39.1309Z" fill="#EFEFEF"/>
<path opacity="0.08" d="M7.9428 33.5685L6.80493 73.3785L22.0165 69.4331L7.9428 33.5685Z" fill="#0F0F0F"/>
<path d="M22.226 19.7918C21.9565 20.3739 20.1 28.2001 20.1 28.2001C20.1 28.2001 19.4412 29.4937 17.8542 29.332C16.2672 29.2026 15.6084 26.7772 15.6084 26.7772L18.3932 16.9459L22.226 19.7918Z" fill="#FCD2B1"/>
<path d="M12.4641 14.9732C12.4641 20.3739 17.7642 26.3567 22.7649 26.3567C27.7655 26.3567 30.5503 20.3739 30.5503 14.9732C30.5503 9.57245 26.5079 5.2066 21.5072 5.2066C16.5066 5.17426 12.4641 9.57245 12.4641 14.9732Z" fill="#FFBCC6"/>
<path d="M23.3566 26.612C28.9063 25.6349 32.6718 19.984 31.7671 13.9903C30.8624 7.99665 25.63 3.92989 20.0804 4.90698C14.5307 5.88406 10.7651 11.535 11.6699 17.5287C12.5746 23.5224 17.8069 27.5891 23.3566 26.612Z" fill="#FFE3CA"/>
<path d="M19.8008 68.4952C20.1901 68.3658 23.5438 66.5872 25.9094 66.5872C28.275 66.5872 31.1795 69.3037 31.1795 69.3037C31.1795 69.3037 31.5688 70.7266 29.9818 70.4356C28.3947 70.1445 30.1914 71.5028 30.1914 71.5028C30.1914 71.5028 30.1015 71.5675 28.245 71.8585C26.3885 72.1496 19.2019 71.7292 19.2019 71.7292L19.8008 68.4952Z" fill="#FFE3CA"/>
<path d="M9.08048 25.3219L7.79289 56.756L19.7705 68.4629L19.2016 71.7616L2.34307 62.0274C0.726095 61.0895 -0.202164 59.1491 0.0373883 57.1764L3.12162 33.1157C3.36117 30.1082 5.06799 27.4563 7.55334 26.1304L9.08048 25.3219Z" fill="#FFBE55"/>
<path d="M18.5731 74.4457H49.0561V72.0203H18.5731C17.9442 72.0203 17.4651 72.57 17.4651 73.2168C17.4352 73.8959 17.9442 74.4457 18.5731 74.4457Z" fill="#FFBE55"/>
<path d="M26.9275 74.4458H56.3325C57.6201 74.4458 58.758 73.5079 59.1173 72.1496L64.2976 51.0319C64.7767 49.0592 63.3993 47.1511 61.5128 47.1511H35.8508C34.5632 47.1511 33.4253 48.089 33.066 49.4472L26.9275 74.4458Z" fill="#FFBE55"/>
<path opacity="0.22" d="M26.9275 74.4458H56.3325C57.6201 74.4458 58.758 73.5079 59.1173 72.1496L64.2976 51.0319C64.7767 49.0592 63.3993 47.1511 61.5128 47.1511H35.8508C34.5632 47.1511 33.4253 48.089 33.066 49.4472L26.9275 74.4458Z" fill="#1898CF"/>
<path d="M44.2349 62.6741C43.9055 64.0647 44.714 65.1642 46.0316 65.1642C47.3491 65.1642 48.6666 64.0323 48.996 62.6741C49.3254 61.2835 48.5169 60.1839 47.1994 60.1839C45.8818 60.1516 44.5643 61.2835 44.2349 62.6741Z" fill="#EFEFEF"/>
<path d="M21.7172 4.75391C26.9575 4.75391 31.2394 9.02274 31.8383 14.4881C30.0716 15.9111 27.7659 16.5255 25.58 16.1375C23.0049 15.6524 20.6992 13.7443 19.6212 11.1895C19.711 12.4184 19.7709 13.6473 19.5912 14.8439C19.4116 16.0404 18.9325 17.237 18.0341 18.0131C17.9743 17.1723 17.8844 16.2668 17.4952 15.523C17.0759 14.7792 16.2076 14.2617 15.4889 14.5851C14.9499 14.8115 14.6205 15.3936 14.5307 16.0081C14.4409 16.6225 14.5906 17.237 14.8002 17.8191C15.1296 18.7246 15.6087 19.5654 16.2075 20.2446C15.0098 20.4386 13.7222 20.6003 12.5244 20.471C11.8956 19.0157 11.5063 17.431 11.5063 15.717C11.5063 9.66952 16.0878 4.75391 21.7172 4.75391Z" fill="#2A94F4"/>
<path d="M12.9434 17.5603C12.9434 19.4037 14.3208 20.8913 16.0276 20.8913C17.7344 20.8913 19.1118 19.4037 19.1118 17.5603C19.1118 15.717 17.7344 14.2294 16.0276 14.2294C14.3507 14.2294 12.9434 15.717 12.9434 17.5603Z" fill="#FFE3CA"/>
<path d="M32.6464 117.263L32.1074 120.788L35.3414 121.888L36.2397 118.428L32.6464 117.263Z" fill="#FFE3CA"/>
<path d="M27.7058 121.888L25.0108 122.438L24.8611 118.751L27.7357 117.975L27.7058 121.888Z" fill="#FFE3CA"/>
<path d="M16.0278 9.83124C18.5415 9.83124 20.5793 7.63044 20.5793 4.91561C20.5793 2.20079 18.5415 0 16.0278 0C13.5141 0 11.4763 2.20079 11.4763 4.91561C11.4763 7.63044 13.5141 9.83124 16.0278 9.83124Z" fill="#2A94F4"/>
</svg>
